<svg width="24" height="24" viewBox="0 0 24 24" fill="none" xmlns="http://www.w3.org/2000/svg">
<g clip-path="url(#clip0_47_1919)">
<path d="M19.1484 19.2218H4.89062C4.22656 19.2218 3.71875 18.7102 3.71875 18.0411V9.38283C3.71875 4.73882 7.42969 1 12 1C16.5703 1 20.3203 4.73882 20.3203 9.38283V18.0411C20.3203 18.6708 19.7734 19.2218 19.1484 19.2218ZM6.0625 16.8605H17.9766V9.38283C17.9766 6.03757 15.2813 3.36136 12 3.36136C8.71875 3.36136 6.02344 6.03757 6.02344 9.38283V16.8605H6.0625Z" fill="#303030"/>
<path d="M20.8281 19.2217H3.17188C2.50781 19.2217 2 18.7101 2 18.041C2 17.372 2.50781 16.8604 3.17188 16.8604H20.8281C21.4922 16.8604 22 17.372 22 18.041C22 18.7101 21.4531 19.2217 20.8281 19.2217Z" fill="#303030"/>
<path d="M12.0002 23C10.8673 23 9.81266 22.6458 8.87516 22.0161C8.32828 21.6619 8.21109 20.9141 8.56266 20.3631C8.91422 19.8122 9.65641 19.6941 10.2033 20.0483C11.258 20.7961 12.7033 20.7961 13.758 20.0483C14.3048 19.6941 15.008 19.8122 15.3986 20.3631C15.7502 20.9141 15.633 21.6225 15.0861 22.0161C14.1877 22.6851 13.133 23 12.0002 23Z" fill="#303030"/>
</g>
<defs>
<clipPath id="clip0_47_1919">
<rect width="20" height="22" fill="white" transform="translate(2 1)"/>
</clipPath>
</defs>
</svg>
