<svg width="16" height="16" viewBox="0 0 16 16" fill="none" xmlns="http://www.w3.org/2000/svg">
<g clip-path="url(#clip0_158_2583)">
<g clip-path="url(#clip1_158_2583)">
<path d="M8.00002 15.3332C3.9532 15.3332 0.666687 12.0467 0.666687 7.99984C0.666687 3.95301 3.9532 0.666504 8.00002 0.666504C12.0468 0.666504 15.3334 3.95301 15.3334 7.99984C15.3334 12.0467 12.0468 15.3332 8.00002 15.3332ZM8.00002 2.13808C4.76256 2.13808 2.13826 4.76238 2.13826 7.99984C2.13826 11.2373 4.76256 13.8616 8.00002 13.8616C11.2375 13.8616 13.8618 11.2373 13.8618 7.99984C13.8618 4.76238 11.2375 2.13808 8.00002 2.13808Z" fill="#A6A4A4"/>
<path d="M8.95655 9.69196C8.83392 9.69196 8.71129 9.66743 8.58866 9.59385C8.24529 9.39764 8.09813 8.95617 8.31887 8.58828L9.49613 6.47902L7.38687 7.65628C7.04351 7.85249 6.57751 7.72986 6.3813 7.38649C6.18509 7.04313 6.30772 6.57713 6.65109 6.38092L11.0413 3.9283C11.3356 3.75662 11.679 3.80567 11.9242 4.05093C12.1695 4.29619 12.2185 4.63956 12.0469 4.93387L9.59423 9.32406C9.4716 9.56932 9.22634 9.69196 8.95655 9.69196Z" fill="#A6A4A4"/>
<path d="M4.59088 12.1695C4.39467 12.1695 4.22299 12.0959 4.07583 11.9487C3.83057 11.7035 3.78152 11.3601 3.9532 11.0658L6.40582 6.67559C6.60203 6.33223 7.0435 6.18507 7.4114 6.4058C7.75476 6.60201 7.90192 7.04349 7.68119 7.41138L6.50393 9.49611L8.61318 8.31885C8.95655 8.12264 9.42254 8.24527 9.61875 8.58864C9.81496 8.932 9.69233 9.398 9.34897 9.59421L4.95878 12.0468C4.83615 12.1204 4.71351 12.1695 4.59088 12.1695Z" fill="#A6A4A4"/>
</g>
</g>
<defs>
<clipPath id="clip0_158_2583">
<rect width="16" height="16" fill="white"/>
</clipPath>
<clipPath id="clip1_158_2583">
<rect width="14.6667" height="14.6667" fill="white" transform="translate(0.666687 0.666504)"/>
</clipPath>
</defs>
</svg>
