<svg width="20" height="20" viewBox="0 0 20 20" fill="none" xmlns="http://www.w3.org/2000/svg">
<g clip-path="url(#clip0_503_4758)">
<g clip-path="url(#clip1_503_4758)">
<path d="M18.2499 19.1667H1.74992C1.23047 19.1667 0.833252 18.7688 0.833252 18.2485V5.3325C0.833252 4.81219 1.23047 4.41431 1.74992 4.41431C2.26936 4.41431 2.66659 4.81219 2.66659 5.3325V17.3303H17.3333V5.3325C17.3333 4.81219 17.7305 4.41431 18.2499 4.41431C18.7694 4.41431 19.1666 4.81219 19.1666 5.3325V18.2485C19.1666 18.7688 18.7694 19.1667 18.2499 19.1667Z" fill="#303030"/>
<path d="M17.0276 6.25061H2.97202C2.69702 6.25061 2.45257 6.12819 2.26924 5.91394C2.0859 5.6997 2.02479 5.42424 2.0859 5.14878L2.72757 1.59842C2.81924 1.13932 3.1859 0.833252 3.64424 0.833252H16.4776C16.9359 0.833252 17.3026 1.16992 17.3942 1.59842L17.9442 5.17938C17.9748 5.45484 17.9137 5.7303 17.7303 5.91394C17.547 6.12819 17.3026 6.25061 17.0276 6.25061ZM4.07202 4.41422H15.9581L15.6831 2.66965H4.40813L4.07202 4.41422Z" fill="#303030"/>
<path d="M9.99982 12.2495C7.92205 12.2495 6.21094 10.5356 6.21094 8.45433C6.21094 8.42372 6.21094 8.42372 6.21094 8.39312C6.24149 7.90341 6.63872 7.53613 7.1276 7.53613C7.64705 7.53613 8.04427 7.93402 8.04427 8.45433V8.48494C8.04427 9.55617 8.93038 10.4132 9.99982 10.4132C11.0693 10.4132 11.9554 9.55617 11.9554 8.48494V8.45433C11.9554 7.93402 12.3526 7.53613 12.872 7.53613C13.3609 7.53613 13.7582 7.93402 13.7887 8.39312C13.7887 8.42372 13.7887 8.42372 13.7887 8.45433C13.7887 10.5356 12.0776 12.2495 9.99982 12.2495Z" fill="#303030"/>
</g>
</g>
<defs>
<clipPath id="clip0_503_4758">
<rect width="20" height="20" fill="white"/>
</clipPath>
<clipPath id="clip1_503_4758">
<rect width="18.3333" height="18.3333" fill="white" transform="translate(0.833252 0.833252)"/>
</clipPath>
</defs>
</svg>
