<svg width="16" height="16" viewBox="0 0 16 16" fill="none" xmlns="http://www.w3.org/2000/svg">
<g clip-path="url(#clip0_158_2579)">
<path d="M8.73237 15.3332H6.19716C5.7981 15.3332 5.49294 15.0149 5.49294 14.5986V9.62811H4.03754C3.63848 9.62811 3.33331 9.3098 3.33331 8.89355V6.39605C3.33331 5.9798 3.63848 5.6615 4.03754 5.6615H5.49294V5.19628C5.49294 2.69878 7.44129 0.666504 9.83566 0.666504H12.6526C13.0516 0.666504 13.3568 0.984812 13.3568 1.40106V4.04547C13.3568 4.46172 13.0516 4.78003 12.6526 4.78003H10.2347C9.78871 4.78003 9.41313 5.17179 9.41313 5.63701V5.68598H11.0328C11.4319 5.68598 11.7371 6.00429 11.7371 6.42054V8.91803C11.7371 9.33428 11.4319 9.65259 11.0328 9.65259H9.4366V14.6231C9.4366 15.0149 9.10796 15.3332 8.73237 15.3332ZM6.90139 13.8641H8.02815V8.89355C8.02815 8.4773 8.33331 8.15899 8.73237 8.15899H10.3521V7.13061H8.73237C8.33331 7.13061 8.02815 6.8123 8.02815 6.39605V5.61252C8.02815 4.33929 9.01406 3.28643 10.2582 3.28643H11.9483V2.13562H9.83566C8.21594 2.13562 6.90139 3.50679 6.90139 5.19628V6.39605C6.90139 6.8123 6.59622 7.13061 6.19716 7.13061H4.74176V8.15899H6.19716C6.59622 8.15899 6.90139 8.4773 6.90139 8.89355V13.8641Z" fill="#A6A4A4"/>
</g>
<defs>
<clipPath id="clip0_158_2579">
<rect width="10" height="14.6667" fill="white" transform="translate(3.33331 0.666504)"/>
</clipPath>
</defs>
</svg>
