<svg width="20" height="20" viewBox="0 0 20 20" fill="none" xmlns="http://www.w3.org/2000/svg">
<g clip-path="url(#clip0_503_4773)">
<g clip-path="url(#clip1_503_4773)">
<path d="M9.99992 19.1666C4.95825 19.1666 0.833252 15.0416 0.833252 9.99992C0.833252 4.95825 4.95825 0.833252 9.99992 0.833252C15.0416 0.833252 19.1666 4.95825 19.1666 9.99992C19.1666 15.0416 15.0416 19.1666 9.99992 19.1666ZM9.99992 2.66659C5.96658 2.66659 2.66659 5.96658 2.66659 9.99992C2.66659 14.0333 5.96658 17.3333 9.99992 17.3333C14.0333 17.3333 17.3333 14.0333 17.3333 9.99992C17.3333 5.96658 14.0333 2.66659 9.99992 2.66659Z" fill="#303030"/>
<path d="M9.32771 13.361C8.80827 13.361 8.41105 12.9637 8.41105 12.4443V11.1304C8.41105 10.9471 8.47216 10.7332 8.59438 10.5804L10.6722 7.73873C10.8249 7.52484 10.9166 7.24984 10.8555 6.97484C10.8249 6.69984 10.6722 6.4554 10.4277 6.30262C9.96938 5.96651 9.29716 6.05817 8.96105 6.51651C8.65549 6.91373 8.07493 7.0054 7.67771 6.69984C7.28049 6.39429 7.18882 5.81373 7.49438 5.41651C8.4416 4.13317 10.2444 3.85817 11.4972 4.8054C12.1083 5.26373 12.536 5.93595 12.6277 6.69984C12.7499 7.46373 12.5666 8.22762 12.1083 8.83873L10.2138 11.436V12.4443C10.2444 12.9332 9.8166 13.361 9.32771 13.361Z" fill="#303030"/>
<path d="M9.3278 16.0192C8.80835 16.0192 8.41113 15.622 8.41113 15.1026V14.8276C8.41113 14.3081 8.80835 13.9109 9.3278 13.9109C9.84724 13.9109 10.2445 14.3081 10.2445 14.8276V15.1026C10.2445 15.622 9.84724 16.0192 9.3278 16.0192Z" fill="#303030"/>
</g>
</g>
<defs>
<clipPath id="clip0_503_4773">
<rect width="20" height="20" fill="white"/>
</clipPath>
<clipPath id="clip1_503_4773">
<rect width="18.3333" height="18.3333" fill="white" transform="translate(0.833252 0.833252)"/>
</clipPath>
</defs>
</svg>
