<svg width="35" height="35" viewBox="0 0 35 35" fill="none" xmlns="http://www.w3.org/2000/svg">
<circle cx="17.5" cy="17.5" r="17.5" fill="#E0793F" fill-opacity="0.3"/>
<g clip-path="url(#clip0_297_2251)">
<g clip-path="url(#clip1_297_2251)">
<path d="M18.0003 27.1668C17.7559 27.1668 17.542 27.0752 17.3587 26.8918L9.10868 18.6418C8.92535 18.489 8.83368 18.2446 8.83368 18.0002V9.75016C8.83368 9.23072 9.2309 8.8335 9.75035 8.8335H18.0003C18.2448 8.8335 18.4892 8.92516 18.642 9.1085L26.892 17.3585C27.0753 17.5418 27.167 17.7557 27.167 18.0002C27.167 18.2446 27.0753 18.489 26.892 18.6418L18.642 26.8918C18.4587 27.0752 18.2448 27.1668 18.0003 27.1668ZM10.667 17.6335L18.0003 24.9668L24.967 18.0002L17.6337 10.6668H10.667V17.6335Z" fill="#E0793F"/>
</g>
</g>
<defs>
<clipPath id="clip0_297_2251">
<rect x="8.00034" y="8" width="20" height="20" rx="5" fill="white"/>
</clipPath>
<clipPath id="clip1_297_2251">
<rect width="18.3333" height="18.3333" fill="white" transform="translate(8.83368 8.8335)"/>
</clipPath>
</defs>
</svg>
