<svg width="35" height="35" viewBox="0 0 35 35" fill="none" xmlns="http://www.w3.org/2000/svg">
<circle cx="17.5" cy="17.5" r="17.5" fill="#EB3131" fill-opacity="0.2"/>
<path d="M19.4648 18.0002L17.3333 19.4212V16.5792L19.4648 18.0002Z" fill="#EB3131"/>
<path fill-rule="evenodd" clip-rule="evenodd" d="M10.0081 10.3642C15.2762 9.23536 20.7238 9.23536 25.9919 10.3642C27.1632 10.6152 28 11.6504 28 12.8483V23.152C28 24.35 27.1632 25.3851 25.9919 25.6361C20.7238 26.765 15.2762 26.765 10.0081 25.6361C8.83682 25.3851 8 24.35 8 23.152V12.8483C8 11.6504 8.83682 10.6152 10.0081 10.3642ZM17.0365 14.7788C16.8319 14.6424 16.5689 14.6297 16.3521 14.7457C16.1353 14.8617 16 15.0876 16 15.3335V20.6668C16 20.9127 16.1353 21.1386 16.3521 21.2546C16.5689 21.3706 16.8319 21.3579 17.0365 21.2215L21.0365 18.5549C21.2219 18.4312 21.3333 18.2231 21.3333 18.0002C21.3333 17.7773 21.2219 17.5691 21.0365 17.4455L17.0365 14.7788Z" fill="#EB3131"/>
</svg>
