<svg width="35" height="35" viewBox="0 0 35 35" fill="none" xmlns="http://www.w3.org/2000/svg">
<circle cx="17.5" cy="17.5" r="17.5" fill="#E3E3E3"/>
<path d="M17.4999 13.9998V14.4998H18.4999V13.9998H17.4999ZM18.4999 13.9865V13.4865H17.4999V13.9865H18.4999ZM18.4999 22.6665V17.3332H17.4999V22.6665H18.4999ZM18.4999 13.9998V13.9865H17.4999V13.9998H18.4999ZM15.9999 18.4998H17.9999V17.4998H15.9999V18.4998ZM15.9999 22.4998H19.9999V21.4998H15.9999V22.4998ZM17.9999 9.1665C22.8784 9.1665 26.8332 13.1213 26.8332 17.9998L27.8332 17.9998C27.8332 12.569 23.4307 8.1665 17.9999 8.1665L17.9999 9.1665ZM9.16656 17.9998C9.16657 13.1213 13.1214 9.1665 17.9999 9.1665L17.9999 8.1665C12.5691 8.1665 8.16657 12.569 8.16656 17.9998H9.16656ZM17.9999 26.8332C13.1214 26.8332 9.16656 22.8783 9.16656 17.9998H8.16656C8.16656 23.4306 12.5691 27.8332 17.9999 27.8332V26.8332ZM17.9999 27.8332C23.4307 27.8332 27.8332 23.4306 27.8332 17.9998L26.8332 17.9998C26.8332 22.8784 22.8784 26.8332 17.9999 26.8332V27.8332Z" fill="#303030"/>
</svg>
