<svg width="20" height="20" viewBox="0 0 20 20" fill="none" xmlns="http://www.w3.org/2000/svg">
<g clip-path="url(#clip0_503_4928)">
<g clip-path="url(#clip1_503_4928)">
<path d="M12.7502 16.4168C12.5057 16.4168 12.2918 16.3252 12.1085 16.1418C11.7418 15.7752 11.7418 15.1946 12.1085 14.8585L16.9668 10.0002L12.1085 5.14183C11.7418 4.77516 11.7418 4.19461 12.1085 3.8585C12.4752 3.49183 13.0557 3.49183 13.3918 3.8585L18.8918 9.3585C19.2585 9.72516 19.2585 10.3057 18.8918 10.6418L13.3918 16.1418C13.239 16.3252 12.9946 16.4168 12.7502 16.4168Z" fill="#E0793F"/>
<path d="M1.74996 0.833415L9.51107 0.833416C10.0305 0.833416 10.4277 1.23064 10.4277 1.75008C10.4277 2.26953 10.0305 2.66675 9.51107 2.66675L2.66662 2.66675L2.66662 17.3334L9.51107 17.3334C10.0305 17.3334 10.4277 17.7306 10.4277 18.2501C10.4277 18.7695 10.0305 19.1667 9.51107 19.1667L1.74996 19.1667C1.23051 19.1667 0.833288 18.7695 0.833288 18.2501L0.83329 1.75008C0.83329 1.23064 1.23051 0.833415 1.74996 0.833415Z" fill="#E0793F"/>
<path d="M17.2724 10.9168L6.42521 10.9168C5.90577 10.9168 5.50854 10.5196 5.50854 10.0002C5.50854 9.48072 5.90577 9.0835 6.42521 9.0835L17.2724 9.0835C17.7919 9.0835 18.1891 9.48072 18.1891 10.0002C18.1891 10.5196 17.7919 10.9168 17.2724 10.9168Z" fill="#E0793F"/>
</g>
</g>
<defs>
<clipPath id="clip0_503_4928">
<rect width="20" height="20" fill="white"/>
</clipPath>
<clipPath id="clip1_503_4928">
<rect width="18.3333" height="18.3333" fill="white" transform="translate(19.1667 19.1667) rotate(-180)"/>
</clipPath>
</defs>
</svg>
