<svg width="16" height="16" viewBox="0 0 16 16" fill="none" xmlns="http://www.w3.org/2000/svg">
<g clip-path="url(#clip0_158_2580)">
<path d="M8.00002 8.34065C7.84446 8.34065 7.68891 8.29646 7.5778 8.186L1.5778 3.17106C1.28891 2.92804 1.26668 2.50829 1.48891 2.24318C1.73335 1.95598 2.15557 1.93389 2.42224 2.15481L8.00002 6.79419L13.5778 2.15481C13.8667 1.9118 14.2889 1.95598 14.5111 2.24318C14.7556 2.53038 14.7111 2.95013 14.4222 3.17106L8.44446 8.186C8.31113 8.27437 8.15557 8.34065 8.00002 8.34065Z" fill="#A6A4A4"/>
<path d="M14 13.3333H1.99998C1.6222 13.3333 1.33331 13.0461 1.33331 12.6706V2.66277C1.33331 2.2872 1.6222 2 1.99998 2H14C14.3778 2 14.6666 2.2872 14.6666 2.66277V12.6706C14.6666 13.0461 14.3778 13.3333 14 13.3333ZM2.66665 12.0078H13.3333V3.32554H2.66665V12.0078Z" fill="#A6A4A4"/>
</g>
<defs>
<clipPath id="clip0_158_2580">
<rect width="13.3333" height="11.3333" fill="white" transform="translate(1.33331 2)"/>
</clipPath>
</defs>
</svg>
