<svg width="16" height="16" viewBox="0 0 16 16" fill="none" xmlns="http://www.w3.org/2000/svg">
<g clip-path="url(#clip0_158_2582)">
<g clip-path="url(#clip1_158_2582)">
<path d="M13.3289 15.3791C6.36224 15.3791 0.666687 9.68354 0.666687 2.69243C0.666687 1.59243 1.57113 0.687988 2.67113 0.687988H5.16446C5.97113 0.687988 6.60669 1.32354 6.60669 2.13021C6.60669 3.18132 6.82669 4.18354 7.26669 5.13688C7.38891 5.40577 7.34002 5.74799 7.12002 5.96799L6.04446 7.0191C5.94669 7.11688 5.8978 7.26354 5.8978 7.41021C5.8978 7.55688 5.94669 7.6791 6.04446 7.80132L8.22002 9.97688C8.41558 10.1724 8.78224 10.1724 8.9778 9.97688L10.0289 8.92577C10.2489 8.70577 10.5667 8.65688 10.86 8.7791C11.8134 9.2191 12.84 9.4391 13.9156 9.4391C14.6978 9.4391 15.3578 10.0747 15.3578 10.8813V13.3747C15.3334 14.4747 14.4534 15.3791 13.3289 15.3791ZM2.67113 2.15465C2.3778 2.15465 2.13335 2.3991 2.13335 2.69243C2.13335 8.87688 7.16891 13.9124 13.3289 13.9124C13.6222 13.9124 13.8667 13.668 13.8667 13.3747V10.9058C12.7667 10.9058 11.7156 10.7102 10.7134 10.2947L10.0289 10.9791C9.66224 11.3458 9.14891 11.5658 8.61113 11.5658C8.07335 11.5658 7.58447 11.3458 7.19335 10.9791L5.0178 8.80354C4.65113 8.43688 4.43113 7.92354 4.43113 7.38577C4.43113 6.84799 4.65113 6.3591 5.0178 5.96799L5.72669 5.2591C5.33558 4.25688 5.14002 3.20577 5.14002 2.13021H2.67113V2.15465Z" fill="#A6A4A4"/>
</g>
</g>
<defs>
<clipPath id="clip0_158_2582">
<rect width="16" height="16" fill="white"/>
</clipPath>
<clipPath id="clip1_158_2582">
<rect width="14.6667" height="14.6911" fill="white" transform="translate(0.666687 0.687988)"/>
</clipPath>
</defs>
</svg>
