<svg width="30" height="30" viewBox="0 0 30 30" fill="none" xmlns="http://www.w3.org/2000/svg">
<circle cx="15" cy="15" r="15" fill="#848484"/>
<g clip-path="url(#clip0_128_841)">
<path d="M21.0751 23.9506C20.5679 23.9506 20.18 23.5628 20.18 23.0556V20.4897C20.18 18.4907 19.3148 17.6554 17.3457 17.6554H12.1245C10.1255 17.6554 9.29012 18.5206 9.29012 20.4897V23.0556C9.29012 23.5628 8.90226 23.9506 8.39506 23.9506C7.88786 23.9506 7.5 23.5628 7.5 23.0556V20.4897C7.5 17.5062 9.14095 15.8652 12.1245 15.8652H17.3457C20.3292 15.8652 21.9702 17.5062 21.9702 20.4897V23.0556C21.9702 23.5329 21.5823 23.9506 21.0751 23.9506Z" fill="#F8F8FF"/>
<path d="M14.7203 15.1193C12.2141 15.1193 10.1853 13.0905 10.1853 10.5843C10.1853 8.07812 12.2141 6.04932 14.7203 6.04932C17.2265 6.04932 19.2553 8.07812 19.2553 10.5843C19.2553 13.0905 17.2265 15.1193 14.7203 15.1193ZM14.7203 7.83944C13.1987 7.83944 11.9754 9.06269 11.9754 10.5843C11.9754 12.1059 13.1987 13.3292 14.7203 13.3292C16.2419 13.3292 17.4651 12.1059 17.4651 10.5843C17.4651 9.06269 16.2419 7.83944 14.7203 7.83944Z" fill="#F8F8FF"/>
</g>
<defs>
<clipPath id="clip0_128_841">
<rect width="14.5" height="17.9012" fill="white" transform="translate(7.5 6.04932)"/>
</clipPath>
</defs>
</svg>
