<svg width="20" height="20" viewBox="0 0 20 20" fill="none" xmlns="http://www.w3.org/2000/svg">
<g clip-path="url(#clip0_503_4763)">
<g clip-path="url(#clip1_503_4763)">
<path d="M17.1194 19.1666H2.88047C1.74992 19.1666 0.833252 18.25 0.833252 17.1194V9.17497C0.833252 8.65552 1.23047 8.2583 1.74992 8.2583C2.26936 8.2583 2.66659 8.65552 2.66659 9.17497V17.1194C2.66659 17.2416 2.75825 17.3333 2.88047 17.3333H17.1194C17.2416 17.3333 17.3333 17.2416 17.3333 17.1194V9.17497C17.3333 8.65552 17.7305 8.2583 18.2499 8.2583C18.7694 8.2583 19.1666 8.65552 19.1666 9.17497V17.1194C19.1666 18.25 18.2499 19.1666 17.1194 19.1666Z" fill="#303030"/>
<path d="M18.1189 8.55428L17.9103 8.38044H17.6387H15.6021L14.1416 7.48542L13.756 7.24914L13.367 7.47987L11.8489 8.38044H9.99969H8.12663L6.63684 7.48255L6.23892 7.24273L5.84698 7.4922L4.45145 8.38044H2.36095H2.06921L1.85415 8.57758C1.82786 8.60168 1.79049 8.61659 1.74466 8.61434C1.70324 8.6123 1.66679 8.59665 1.63977 8.57184C1.56313 8.46933 1.59305 8.3564 1.64552 8.30831L1.70196 8.25657L1.74678 8.19449L5.5038 2.99124C5.55669 2.97594 5.63006 2.95813 5.72683 2.93925C5.98907 2.88808 6.35433 2.84201 6.80158 2.80394C7.6918 2.72818 8.8412 2.68945 9.99969 2.68945C11.1582 2.68945 12.3076 2.72817 13.1978 2.80394C13.6451 2.842 14.0103 2.88807 14.2726 2.93924C14.3693 2.95813 14.4427 2.97593 14.4956 2.99124L18.2529 8.19451L18.2977 8.25658L18.3542 8.30831C18.3843 8.33596 18.4037 8.37611 18.4059 8.42249C18.4082 8.46832 18.3933 8.50569 18.3692 8.53198L18.3607 8.5412L18.3526 8.55068C18.2959 8.61681 18.2531 8.62404 18.249 8.6248C18.2422 8.62407 18.1943 8.61711 18.1189 8.55428ZM5.41946 3.02064C5.41927 3.02057 5.42199 3.01915 5.42821 3.01657C5.42275 3.01942 5.41965 3.02071 5.41946 3.02064ZM14.5799 3.02063C14.5798 3.0207 14.5766 3.01941 14.5712 3.01656C14.5774 3.01914 14.5801 3.02056 14.5799 3.02063Z" stroke="#303030" stroke-width="1.5"/>
<path d="M12.2609 19.1667H7.73869C7.21924 19.1667 6.82202 18.7694 6.82202 18.25V10.9167C6.82202 10.3972 7.21924 10 7.73869 10H12.2304C12.7498 10 13.147 10.3972 13.147 10.9167V18.25C13.1776 18.7694 12.7498 19.1667 12.2609 19.1667ZM8.65535 17.3333H11.3137V11.8333H8.65535V17.3333Z" fill="#303030"/>
</g>
</g>
<defs>
<clipPath id="clip0_503_4763">
<rect width="20" height="20" fill="white"/>
</clipPath>
<clipPath id="clip1_503_4763">
<rect width="18.3333" height="18.3333" fill="white" transform="translate(0.833252 0.833252)"/>
</clipPath>
</defs>
</svg>
