<svg width="20" height="20" viewBox="0 0 20 20" fill="none" xmlns="http://www.w3.org/2000/svg">
<g clip-path="url(#clip0_503_4768)">
<path d="M16.576 19.1665H2.59087C2.0672 19.1665 1.66675 18.7752 1.66675 18.2634V3.72319C1.66675 3.21142 2.0672 2.82007 2.59087 2.82007H5.97933C6.503 2.82007 6.90345 3.21142 6.90345 3.72319C6.90345 4.23496 6.503 4.62631 5.97933 4.62631H3.515V17.3603H15.6518V4.62631H12.6022C12.0786 4.62631 11.6781 4.23496 11.6781 3.72319C11.6781 3.21142 12.0786 2.82007 12.6022 2.82007H16.576C17.0996 2.82007 17.5001 3.21142 17.5001 3.72319V18.2634C17.5001 18.7451 17.0996 19.1665 16.576 19.1665Z" fill="#303030"/>
<path d="M11.4009 6.40249H7.76602C6.71867 6.40249 5.88696 5.58968 5.88696 4.56615V2.6696C5.88696 1.64606 6.71867 0.833252 7.76602 0.833252H11.4317C12.4791 0.833252 13.3108 1.64606 13.3108 2.6696V4.59625C13.28 5.58968 12.4482 6.40249 11.4009 6.40249ZM7.76602 2.63949C7.73521 2.63949 7.73521 2.63949 7.76602 2.63949L7.73521 4.56615C7.73521 4.59625 7.73521 4.59625 7.76602 4.59625H11.4317C11.4625 4.59625 11.4625 4.59625 11.4625 4.56615V2.6696C11.4625 2.63949 11.4625 2.63949 11.4317 2.63949H7.76602Z" fill="#303030"/>
<g clip-path="url(#clip1_503_4768)">
<path d="M13.6595 20.7779H12.9872C12.2539 20.7779 11.6428 20.1668 11.6428 19.4334V18.7205L11.1335 19.2297C10.6039 19.7594 9.74834 19.7594 9.23908 19.2297L8.77056 18.7408C8.24093 18.2112 8.24093 17.3557 8.77056 16.8464L9.27982 16.3371H8.56686C7.83352 16.3371 7.22241 15.726 7.22241 14.9927V14.3205C7.22241 13.5871 7.83352 12.976 8.56686 12.976H9.27982L8.77056 12.4668C8.24093 11.9371 8.24093 11.0816 8.77056 10.5723L9.23908 10.1038C9.76871 9.57418 10.6243 9.57418 11.1335 10.1038L11.6428 10.6131V9.90011C11.6428 9.16678 12.2539 8.55566 12.9872 8.55566H13.6595C14.3928 8.55566 15.0039 9.16678 15.0039 9.90011V10.6131L15.5132 10.1038C16.0428 9.57418 16.8983 9.57418 17.4076 10.1038L17.8761 10.5723C18.4057 11.102 18.4057 11.9575 17.8761 12.4668L17.3669 12.976H18.0798C18.8132 12.976 19.4243 13.5871 19.4243 14.3205V14.9927C19.4243 15.726 18.8132 16.3371 18.0798 16.3371H17.3669L17.8761 16.8464C18.4057 17.376 18.4057 18.2316 17.8761 18.7408L17.4076 19.2094C16.878 19.739 16.0224 19.739 15.5132 19.2094L15.0039 18.7001V19.4131C15.0039 20.1668 14.4132 20.7779 13.6595 20.7779ZM11.7243 17.3964C11.8669 17.3964 12.0298 17.4168 12.1724 17.4779C12.6002 17.6612 12.8854 18.0686 12.8854 18.5371V19.4131C12.8854 19.4742 12.9465 19.5353 13.0076 19.5353H13.6798C13.7409 19.5353 13.802 19.4742 13.802 19.4131V18.5371C13.802 18.0686 14.0872 17.6408 14.515 17.4779C14.9428 17.2946 15.452 17.3964 15.778 17.7223L16.3891 18.3334C16.4502 18.3946 16.5113 18.3946 16.552 18.3334L17.0206 17.8649C17.0409 17.8446 17.0613 17.8038 17.0613 17.7834C17.0613 17.7631 17.0613 17.7223 17.0206 17.702L16.4095 17.0908C16.0835 16.7649 15.9817 16.2557 16.165 15.8279C16.3483 15.4001 16.7557 15.1149 17.2243 15.1149H18.1002C18.1613 15.1149 18.2224 15.0538 18.2224 14.9927V14.3205C18.2224 14.2594 18.1613 14.1983 18.1002 14.1983H17.2243C16.7557 14.1983 16.328 13.9131 16.165 13.4853C16.002 13.0575 16.0835 12.5483 16.4095 12.2223L17.0206 11.6112C17.0409 11.5908 17.0613 11.5501 17.0613 11.5297C17.0613 11.5094 17.0613 11.4686 17.0206 11.4483L16.552 10.9797C16.4909 10.9186 16.4298 10.9186 16.3891 10.9797L15.778 11.5908C15.452 11.9168 14.9428 12.0186 14.515 11.8353C14.0872 11.652 13.802 11.2446 13.802 10.776V9.90011C13.802 9.839 13.7409 9.77789 13.6798 9.77789H13.0076C12.9465 9.77789 12.8854 9.839 12.8854 9.90011V10.776C12.8854 11.2446 12.6002 11.6723 12.1724 11.8353C11.7446 12.0186 11.2354 11.9168 10.9094 11.5908L10.2983 10.9797C10.2372 10.9186 10.1761 10.9186 10.1354 10.9797L9.66686 11.4483C9.64649 11.4686 9.62612 11.5094 9.62612 11.5297C9.62612 11.5501 9.62612 11.5908 9.66686 11.6112L10.278 12.2223C10.6039 12.5483 10.7057 13.0575 10.5224 13.4853C10.3391 13.9131 9.93167 14.1983 9.46315 14.1983H8.56686C8.50575 14.2186 8.44463 14.2594 8.44463 14.3205V14.9927C8.44463 15.0538 8.50575 15.1149 8.56686 15.1149H9.44278C9.9113 15.1149 10.3391 15.4001 10.502 15.8279C10.665 16.2557 10.5835 16.7649 10.2576 17.0908L9.64649 17.702C9.62612 17.7223 9.60575 17.7631 9.60575 17.7834C9.60575 17.8038 9.60575 17.8446 9.64649 17.8649L10.115 18.3334C10.1761 18.3946 10.2372 18.3946 10.278 18.3334L10.8891 17.7223C11.1335 17.5186 11.4187 17.3964 11.7243 17.3964Z" fill="#303030"/>
<path d="M13.3334 17.0297C12.0297 17.0297 10.9705 15.9705 10.9705 14.6668C10.9705 13.3631 12.0297 12.2834 13.3334 12.2834C14.6371 12.2834 15.6964 13.3631 15.6964 14.6668C15.6964 15.9705 14.6371 17.0297 13.3334 17.0297ZM13.3334 13.4446C12.6612 13.4446 12.1112 13.9946 12.1112 14.6668C12.1112 15.339 12.6612 15.889 13.3334 15.889C14.0056 15.889 14.5556 15.339 14.5556 14.6668C14.5556 13.9946 14.0056 13.4446 13.3334 13.4446Z" fill="#303030"/>
</g>
</g>
<defs>
<clipPath id="clip0_503_4768">
<rect width="15.8333" height="18.3333" fill="white" transform="translate(1.66675 0.833252)"/>
</clipPath>
<clipPath id="clip1_503_4768">
<rect width="12.2222" height="12.2222" fill="white" transform="translate(7.22241 8.55566)"/>
</clipPath>
</defs>
</svg>
