<svg width="20" height="20" viewBox="0 0 20 20" fill="none" xmlns="http://www.w3.org/2000/svg">
<g clip-path="url(#clip0_158_3029)">
<g clip-path="url(#clip1_158_3029)">
<path d="M9.11389 17.3914C4.53055 17.3914 0.833332 13.688 0.833332 9.12763C0.833332 4.56725 4.53055 0.833252 9.11389 0.833252C13.6972 0.833252 17.3944 4.53665 17.3944 9.12763C17.3944 10.5967 16.9972 12.0353 16.2944 13.2901C16.05 13.7186 15.4694 13.8716 15.0417 13.6268C14.6139 13.3819 14.4611 12.8004 14.7056 12.3719C15.2861 11.3925 15.5611 10.2907 15.5611 9.12763C15.5306 5.54666 12.6583 2.66965 9.11389 2.66965C5.56944 2.66965 2.66667 5.54666 2.66667 9.12763C2.66667 12.7086 5.53889 15.5856 9.11389 15.5856C10.2444 15.5856 11.375 15.2796 12.3528 14.7286C12.7806 14.4838 13.3611 14.6368 13.6056 15.0653C13.85 15.4938 13.6972 16.0753 13.2694 16.3202C11.9861 17.0241 10.55 17.3914 9.11389 17.3914Z" fill="#696969"/>
<path d="M9.11389 17.3914C4.53055 17.3914 0.833332 13.688 0.833332 9.12763C0.833332 7.65852 1.23055 6.22001 1.93333 4.96514C2.17778 4.53665 2.75833 4.38361 3.18611 4.62847C3.61389 4.87332 3.76667 5.45484 3.52222 5.88334C2.97222 6.86275 2.66667 7.99519 2.66667 9.12763C2.66667 12.678 5.53889 15.5856 9.11389 15.5856C12.6889 15.5856 15.5611 12.7086 15.5611 9.12763C15.5611 5.54666 12.6583 2.66965 9.11389 2.66965C7.98333 2.66965 6.85278 2.97571 5.875 3.52663C5.44722 3.77148 4.86666 3.61845 4.62222 3.18996C4.37778 2.76147 4.53055 2.17994 4.95833 1.93509C6.21111 1.23114 7.64722 0.833252 9.11389 0.833252C13.6667 0.833252 17.3639 4.53665 17.3639 9.12763C17.3639 13.7186 13.6667 17.3914 9.11389 17.3914Z" fill="#696969"/>
<path d="M18.25 19.1665C18.0055 19.1665 17.7916 19.0747 17.6083 18.8911L13.7277 15.004C13.3611 14.6368 13.3611 14.0552 13.7277 13.7186C14.0944 13.3513 14.675 13.3513 15.0111 13.7186L18.8916 17.6056C19.2583 17.9729 19.2583 18.5544 18.8916 18.8911C18.7083 19.0747 18.4639 19.1665 18.25 19.1665Z" fill="#696969"/>
</g>
</g>
<defs>
<clipPath id="clip0_158_3029">
<rect width="20" height="20" fill="white"/>
</clipPath>
<clipPath id="clip1_158_3029">
<rect width="18.3333" height="18.3333" fill="white" transform="translate(0.833332 0.833252)"/>
</clipPath>
</defs>
</svg>
