<svg width="24" height="24" viewBox="0 0 24 24" fill="none" xmlns="http://www.w3.org/2000/svg">
<g clip-path="url(#clip0_47_1914)">
<path d="M12.5867 23H11.3767C10.0567 23 8.95667 21.9 8.95667 20.58V19.2967L8.04 20.2133C7.08667 21.1667 5.54667 21.1667 4.63 20.2133L3.78667 19.3333C2.83333 18.38 2.83333 16.84 3.78667 15.9233L4.70333 15.0067H3.42C2.1 15.0067 1 13.9067 1 12.5867V11.3767C1 10.0567 2.1 8.95667 3.42 8.95667H4.70333L3.78667 8.04C2.83333 7.08667 2.83333 5.54667 3.78667 4.63L4.63 3.78667C5.58333 2.83333 7.12333 2.83333 8.04 3.78667L8.95667 4.70333V3.42C8.95667 2.1 10.0567 1 11.3767 1H12.5867C13.9067 1 15.0067 2.1 15.0067 3.42V4.70333L15.9233 3.78667C16.8767 2.83333 18.4167 2.83333 19.3333 3.78667L20.1767 4.63C21.13 5.58333 21.13 7.12333 20.1767 8.04L19.26 8.95667H20.5433C21.8633 8.95667 22.9633 10.0567 22.9633 11.3767V12.5867C22.9633 13.9067 21.8633 15.0067 20.5433 15.0067H19.26L20.1767 15.9233C21.13 16.8767 21.13 18.4167 20.1767 19.3333L19.3333 20.1767C18.38 21.13 16.84 21.13 15.9233 20.1767L15.0067 19.26V20.5433C15.0067 21.9 13.9433 23 12.5867 23ZM9.10333 16.9133C9.36 16.9133 9.65333 16.95 9.91 17.06C10.68 17.39 11.1933 18.1233 11.1933 18.9667V20.5433C11.1933 20.6533 11.3033 20.7633 11.4133 20.7633H12.6233C12.7333 20.7633 12.8433 20.6533 12.8433 20.5433V18.9667C12.8433 18.1233 13.3567 17.3533 14.1267 17.06C14.8967 16.73 15.8133 16.9133 16.4 17.5L17.5 18.6C17.61 18.71 17.72 18.71 17.7933 18.6L18.6367 17.7567C18.6733 17.72 18.71 17.6467 18.71 17.61C18.71 17.5733 18.71 17.5 18.6367 17.4633L17.5367 16.3633C16.95 15.7767 16.7667 14.86 17.0967 14.09C17.4267 13.32 18.16 12.8067 19.0033 12.8067H20.58C20.69 12.8067 20.8 12.6967 20.8 12.5867V11.3767C20.8 11.2667 20.69 11.1567 20.58 11.1567H19.0033C18.16 11.1567 17.39 10.6433 17.0967 9.87333C16.8033 9.10333 16.95 8.18667 17.5367 7.6L18.6367 6.5C18.6733 6.46333 18.71 6.39 18.71 6.35333C18.71 6.31667 18.71 6.24333 18.6367 6.20667L17.7933 5.36333C17.6833 5.25333 17.5733 5.25333 17.5 5.36333L16.4 6.46333C15.8133 7.05 14.8967 7.23333 14.1267 6.90333C13.3567 6.57333 12.8433 5.84 12.8433 4.99667V3.42C12.8433 3.31 12.7333 3.2 12.6233 3.2H11.4133C11.3033 3.2 11.1933 3.31 11.1933 3.42V4.99667C11.1933 5.84 10.68 6.61 9.91 6.90333C9.14 7.23333 8.22333 7.05 7.63667 6.46333L6.53667 5.36333C6.42667 5.25333 6.31667 5.25333 6.24333 5.36333L5.4 6.20667C5.36333 6.24333 5.32667 6.31667 5.32667 6.35333C5.32667 6.39 5.32667 6.46333 5.4 6.5L6.5 7.6C7.08667 8.18667 7.27 9.10333 6.94 9.87333C6.61 10.6433 5.87667 11.1567 5.03333 11.1567H3.42C3.31 11.1933 3.2 11.2667 3.2 11.3767V12.5867C3.2 12.6967 3.31 12.8067 3.42 12.8067H4.99667C5.84 12.8067 6.61 13.32 6.90333 14.09C7.19667 14.86 7.05 15.7767 6.46333 16.3633L5.36333 17.4633C5.32667 17.5 5.29 17.5733 5.29 17.61C5.29 17.6467 5.29 17.72 5.36333 17.7567L6.20667 18.6C6.31667 18.71 6.42667 18.71 6.5 18.6L7.6 17.5C8.04 17.1333 8.55333 16.9133 9.10333 16.9133Z" fill="#303030"/>
<path d="M11.9999 16.2533C9.65325 16.2533 7.74658 14.3466 7.74658 12C7.74658 9.65329 9.65325 7.70996 11.9999 7.70996C14.3466 7.70996 16.2532 9.65329 16.2532 12C16.2532 14.3466 14.3466 16.2533 11.9999 16.2533ZM11.9999 9.79996C10.7899 9.79996 9.79992 10.79 9.79992 12C9.79992 13.21 10.7899 14.2 11.9999 14.2C13.2099 14.2 14.1999 13.21 14.1999 12C14.1999 10.79 13.2099 9.79996 11.9999 9.79996Z" fill="#303030"/>
</g>
<defs>
<clipPath id="clip0_47_1914">
<rect width="22" height="22" fill="white" transform="translate(1 1)"/>
</clipPath>
</defs>
</svg>
