<svg width="16" height="16" viewBox="0 0 16 16" fill="none" xmlns="http://www.w3.org/2000/svg">
<g clip-path="url(#clip0_158_2581)">
<path d="M6.38665 11.9542C6.26443 11.9542 6.14221 11.9293 6.01999 11.8547C5.77554 11.7053 5.65332 11.4565 5.65332 11.2076V5.48399C5.65332 5.21025 5.79999 4.9614 6.01999 4.83697C6.23999 4.71255 6.53332 4.71255 6.75332 4.83697L11.6178 7.69879C11.8378 7.82322 11.9844 8.07208 11.9844 8.34581C11.9844 8.61955 11.8378 8.86841 11.6178 8.99284L6.75332 11.8547C6.6311 11.9044 6.50888 11.9542 6.38665 11.9542ZM7.11999 6.75315V9.88871L9.78443 8.32093L7.11999 6.75315Z" fill="#A6A4A4"/>
<path d="M12.84 14.6667H3.18446C1.79113 14.6667 0.666687 13.5219 0.666687 12.1035V4.5632C0.666687 3.14473 1.79113 2 3.18446 2H12.84C14.2089 2 15.3334 3.14473 15.3334 4.5632V12.1284C15.3334 13.5219 14.2089 14.6667 12.84 14.6667ZM3.18446 3.49312C2.5978 3.49312 2.13335 3.96595 2.13335 4.5632V12.1284C2.13335 12.7256 2.5978 13.1984 3.18446 13.1984H12.84C13.4267 13.1984 13.8911 12.7256 13.8911 12.1284V4.5632C13.8667 3.96595 13.4022 3.49312 12.84 3.49312H3.18446Z" fill="#A6A4A4"/>
</g>
<defs>
<clipPath id="clip0_158_2581">
<rect width="14.6667" height="12.6667" fill="white" transform="translate(0.666687 2)"/>
</clipPath>
</defs>
</svg>
