<svg width="17" height="17" viewBox="0 0 17 17" fill="none" xmlns="http://www.w3.org/2000/svg">
<g clip-path="url(#clip0_317_2700)">
<path d="M4.37654 13.7196V14.2196H4.87654H14.9103C13.9209 15.4094 12.4362 16.1669 10.7713 16.1669H6.56075C3.58132 16.1669 1.16602 13.7516 1.16602 10.7722V6.56167C1.16602 4.3863 2.45592 2.51367 4.31416 1.66134L4.37654 1.70312V13.7196Z" fill="#C5C5C5" stroke="#A6A4A4"/>
<path d="M6.56029 1.1665H10.7708C13.7503 1.1665 16.1656 3.5818 16.1656 6.56124V10.7718C16.1656 11.8954 15.8187 12.9363 15.2293 13.8013C14.0341 14.4961 12.2147 14.9033 10.3498 14.9033C8.81101 14.9033 7.28821 14.7995 6.0116 14.1217C5.66096 13.9354 5.23314 13.9005 4.84713 14.071L5.04913 14.5284L4.84713 14.071C4.50886 14.2204 4.17296 14.305 3.87466 14.3511C4.12657 13.8723 4.1648 13.4169 4.14931 13.1162C4.1356 12.8498 4.03504 12.6112 3.89789 12.42C2.8141 10.9083 2.42871 9.35829 2.42871 6.56124C2.42871 4.86103 3.36001 2.80761 4.64291 1.52155C5.24017 1.29383 5.88497 1.1665 6.56029 1.1665Z" fill="#EEEEEE" stroke="#A6A4A4"/>
<path d="M13.7186 10.4352C12.8483 10.4352 12.1396 9.72661 12.1396 8.85629C12.1396 7.98598 12.8483 7.27734 13.7186 7.27734C14.5889 7.27734 15.2975 7.98598 15.2975 8.85629C15.2975 9.72661 14.5889 10.4352 13.7186 10.4352ZM13.7186 7.90892C13.1965 7.90892 12.7712 8.33419 12.7712 8.85629C12.7712 9.3784 13.1965 9.80366 13.7186 9.80366C14.2407 9.80366 14.666 9.3784 14.666 8.85629C14.666 8.33419 14.2407 7.90892 13.7186 7.90892Z" fill="#A6A4A4"/>
<path d="M11.5078 10.435H11.0867C10.9705 10.435 10.8762 10.3407 10.8762 10.2245V6.64551H11.5078V10.435Z" fill="#A6A4A4"/>
<path d="M9.61323 7.38261V7.60113C9.34839 7.40071 9.02249 7.27734 8.66586 7.27734C7.79555 7.27734 7.08691 7.98598 7.08691 8.85629C7.08691 9.72661 7.79555 10.4352 8.66586 10.4352C9.02249 10.4352 9.34839 10.3119 9.61323 10.1114V10.2247C9.61323 10.3409 9.70755 10.4352 9.82376 10.4352H10.2448V7.38261H9.61323ZM8.66586 9.80366C8.14376 9.80366 7.71849 9.3784 7.71849 8.85629C7.71849 8.33419 8.14376 7.90892 8.66586 7.90892C9.18797 7.90892 9.61323 8.33419 9.61323 8.85629C9.61323 9.3784 9.18797 9.80366 8.66586 9.80366Z" fill="#A6A4A4"/>
<path d="M7.19223 6.64551H3.82381V7.27709H6.06423L3.71854 10.0139H3.72949C3.66086 10.1028 3.61328 10.2089 3.61328 10.3297V10.435H6.77118C6.88739 10.435 6.9817 10.3407 6.9817 10.2245V9.8034H4.74128L7.08697 7.06656H7.07602C7.14465 6.97772 7.19223 6.87161 7.19223 6.75077V6.64551Z" fill="#A6A4A4"/>
</g>
<defs>
<clipPath id="clip0_317_2700">
<rect width="17" height="17" fill="white"/>
</clipPath>
</defs>
</svg>
