<svg width="160" height="160" viewBox="0 0 160 160" xmlns="http://www.w3.org/2000/svg">
    <g fill="none" fill-rule="evenodd">
        <g transform="translate(.167 .014)">
            <path d="m125.336 18.105.03 122.336h-82.52L42.78 29.966l11.706-11.861h70.85zm-11.532 97.607c-2.92 0-5.29 2.342-5.29 5.23 0 2.889 2.37 5.23 5.29 5.23 2.922 0 5.29-2.341 5.29-5.23 0-2.888-2.368-5.23-5.29-5.23zm-11.503 7.085H57.34c-.609 0-1.102.488-1.102 1.09 0 .561.43 1.023.982 1.083l.12.006h44.96c.609 0 1.102-.488 1.102-1.09 0-.601-.493-1.09-1.102-1.09zM102 116.5H79.518c-.609 0-1.102.487-1.102 1.09 0 .56.43 1.023.982 1.082l.12.007h22.48c.61 0 1.103-.488 1.103-1.09 0-.602-.494-1.09-1.102-1.09z" fill="#E0E0E0" fill-rule="nonzero"/>
            <path d="M.625.773h158.416v157.432H.625z"/>
            <rect fill="#FFF" x="54.486" y="42.492" width="25.347" height="2.361" rx="1.181"/>
            <rect fill="#FFF" x="54.486" y="49.577" width="57.822" height="2.361" rx="1.181"/>
            <rect fill="#FFF" x="54.486" y="56.661" width="57.822" height="2.361" rx="1.181"/>
            <rect fill="#FFF" x="54.486" y="63.745" width="57.822" height="2.361" rx="1.181"/>
            <rect fill="#FFF" x="54.486" y="70.83" width="57.822" height="2.361" rx="1.181"/>
            <path fill="#F0F0F0" d="m54.616 18.105.037 11.878-11.88-.036z"/>
        </g>
        <path d="M40.006 113.998v22.778m-2.203 0v-22.778" fill="#CDD0D4"/>
        <path d="M39.98 76.616s-.357 3.64-2.808 4.735c-.06.697-.06 1.398 0 2.094h8.7v-1.953a5.527 5.527 0 0 1-2.944-4.876h-2.949z" fill="#FAC6BA"/>
        <path d="M43.09 77.203c0 1.928-3.525 2.19-3.525 2.19a5.08 5.08 0 0 0 .44-1.314 9.433 9.433 0 0 0 0-1.752c.43.535 1.075.856 1.764.876.376.022.751-.055 1.088-.223a.58.58 0 0 0 .234-.215v.438z" fill="#E2A799"/>
        <path d="M36.723 70.764c-.952.377-1.732 2.208 1.04 3.281.582 2.067 2.102 3.18 3.71 3.329 1.609.149 4.054-.972 4.147-7.122-.401-2.677-.934-2.716-.934-2.716l-7.43-.368-.533 3.596z" fill="#FAC6BA"/>
        <path d="M37.42 72.906s-1.125-.328-1.587-3.46c-.463-3.132 1.11-5.62 4.891-5.673 3.781-.053 4.755 1.069 4.944 1.735-.273 1.393-1.295 1.432-1.29 2.426-1.27-.617-5.324-.425-6.011.35-.794.903-1.278 2.94-.948 4.622z" fill="#666"/>
        <path d="M43.826 67.755s1.093.359 1.468 3.754c.467-.057 1.719-3.724.185-5.318 0 0-1.287-.035-1.653 1.564z" fill="#4D4D4D"/>
        <path d="M36.89 80.795s2.305 1.393 4.632 1.393c2.375 0 4.772-1.393 4.772-1.393s6.809.626 9.263 2.926c2.455 2.3 7.289 20.588.419 21.324-4.702-.14-9.964-5.02-9.964-5.02l-13.189 4.043s-10.038 5.576-9.686-1.95c.353-7.525.423-15.607 4.072-18.327 3.649-2.72 9.681-2.996 9.681-2.996z" fill="#FAFAFA"/>
        <path d="M51.344 89.713c-.872 1.91-.639 4.455.141 6.273a5.519 5.519 0 0 0 2.948 2.786s-.304-1.314-1.123-4.319c-.904-3.32-1.596-5.55-1.966-4.74zM31.7 91.667c-.67.793-2.115 5.243-2.106 6.829.004.412 2.736-1.884 2.948-3.347a5.646 5.646 0 0 0-.842-3.482z" fill="#F0F0F0"/>
        <path d="m40.107 137.652 7.452 1.42.815.77h-19.38l.678-.77 7.857-1.42.274-.438v-23.216H27.447c-.609 0-1.102-.49-1.102-1.095s.493-1.095 1.102-1.095h23.796c.608 0 1.102.49 1.102 1.095s-.494 1.095-1.102 1.095H40.006v23.216l.101.438z" fill="#CCC"/>
        <path d="M29.663 139.32c.427-.003.814.25.98.641.166.39.078.843-.223 1.144-.3.301-.754.392-1.149.23a1.047 1.047 0 0 1 .392-2.014zm9.4 0a1.05 1.05 0 0 1 1.053 1.048 1.05 1.05 0 0 1-1.053 1.047 1.05 1.05 0 0 1-1.053-1.047 1.05 1.05 0 0 1 1.053-1.047zm9.686 0c.427-.003.813.25.979.641.166.39.078.843-.223 1.144-.3.301-.754.392-1.148.23a1.047 1.047 0 0 1 .392-2.014z" fill="#CDD0D4"/>
        <path d="M48.82 111.808s-14.97.18-14.983 0c-2.054 0-5.619-8.2 2.212-10.386 10.113-2.825 14.692-3.657 16.56 1.95 1.868 5.606 8.549 26.395 8.549 26.395l-3.085 1.752-9.254-19.711z" fill="#5C5C5C"/>
        <path d="M39.125 111.808s3.146-4.792 5.887-5.09c-2.036 3.027-1.921 5.09-1.921 5.09h-3.966z" fill="#4D4D4D"/>
        <path d="m39.125 137.652 2.538-25.082s.29-7.214 5.332-6.273c4.35.815 1.683 7.666 1.683 7.666l-6.028 23.689h-3.525z" fill="#757575"/>
        <path d="M58.642 130.683c.489.801.912 1.64 1.264 2.51.265.84 1.093.793 2.627-.08 2.48-1.4 3.83-2.29 3.83-2.29s.938-1.485-1.265-1.113c-2.204.373-4.068.697-4.068.697l-.423-.837-1.965 1.113zm-18.804 6.829c0 .584-.145 1.159-.423 1.673-.431.688-1.335 2.37.141 2.37h3.09c.973 0 1.017-1.424-.283-1.95-.797-.442-.282-2.093-.282-2.093h-2.243z" fill="#4D4D4D"/>
        <path d="M44.329 100.585a3.126 3.126 0 0 0 1.723-.661 5.332 5.332 0 0 1 1.366-.609l-.004-.928s-1.83-.771-4.605.113c-1.486.61-1.68 1.258-1.146 1.389-.053.184.366.464.7.416-.017.158.697.267.842.14.203.272 1.01.145 1.124.14z" fill="#F7B7B2"/>
        <path d="M41.663 96.402a1.756 1.756 0 0 1-1.575-.85 1.734 1.734 0 0 1 0-1.782 1.756 1.756 0 0 1 1.575-.85v.543a1.208 1.208 0 0 0-1.083.585 1.193 1.193 0 0 0 0 1.226c.226.377.641.602 1.083.585v.543z" fill="#6E6E6E"/>
        <path d="M42.97 92.083h.48c.875 0 1.584.71 1.584 1.584v1.856c0 .875-.71 1.584-1.584 1.584h-.48a1.584 1.584 0 0 1-1.585-1.584v-1.856c0-.875.71-1.584 1.584-1.584z" fill="#6E6E6E" fill-rule="nonzero"/>
        <path d="M47.938 81.584c-1.622.792.344 2.347-1.644 3.114-2.304.89-3.992 1.809-3.203 4.77a2.191 2.191 0 0 1-1.322 2.628h2.644c4.882-2.155 1.14-4.21 3.706-5.309 2.564-1.1 5.565-.722 7.31-3.013a11.993 11.993 0 0 0-7.491-2.19z" fill="#F0F0F0"/>
        <path d="M37.102 96.45c1.185-.18 1.472.224 2.979.022.965-.197 1.3-.35 1.3-1.739a.977.977 0 0 0-.286-.828.99.99 0 0 0-.838-.271c.33-.092.674-.276.639-.508-.04-.316-.34-.425-1.168-.263a7.062 7.062 0 0 0-2.908 1.516l.282 2.071z" fill="#F7B7B2"/>
        <path d="M5.451 142.387h149.752a.699.699 0 1 1 0 1.397H5.45a.699.699 0 0 1 0-1.397z" fill="#E6E6E6" fill-rule="nonzero"/>
        <path d="M129.995 122.8c-.639-.17-1.841 2.189-2.683 5.261-.842 3.073-1.009 5.702-.366 5.868.644.165 1.842-2.19 2.684-5.263.841-3.072 1.009-5.697.365-5.867zm-11.385-1.058c.714-.161 2.049 2.093 2.987 5.035.939 2.943 1.12 5.458.406 5.62-.714.16-2.05-2.094-2.988-5.036-.938-2.943-1.119-5.458-.405-5.62z" fill="#D9D9D9"/>
        <path d="M124.867 116.2c-1.322 0-2.402 1.455-2.402 6.403 0 4.95 1.08 11.521 2.402 11.521 1.33 0 2.405-6.572 2.405-11.52 0-4.95-1.075-6.403-2.405-6.403z" fill="#C7C7C7"/>
        <path d="M120.928 132.862h7.2a1.08 1.08 0 0 1 1.092 1.067l-1.313 5.989c0 .284-.115.557-.32.758a1.09 1.09 0 0 1-.768.312h-4.583a1.095 1.095 0 0 1-.77-.311 1.07 1.07 0 0 1-.323-.76l-1.308-5.988a1.08 1.08 0 0 1 1.093-1.067z" fill="#DBDBDB"/>
    </g>
</svg>
