<svg width="20" height="20" viewBox="0 0 20 20" fill="none" xmlns="http://www.w3.org/2000/svg">
<g clip-path="url(#clip0_457_2791)">
<g clip-path="url(#clip1_457_2791)">
<path d="M18.25 19.1667H1.74998C1.23054 19.1667 0.833313 18.7688 0.833313 18.2485V5.3325C0.833313 4.81219 1.23054 4.41431 1.74998 4.41431C2.26942 4.41431 2.66665 4.81219 2.66665 5.3325V17.3303H17.3333V5.3325C17.3333 4.81219 17.7305 4.41431 18.25 4.41431C18.7694 4.41431 19.1666 4.81219 19.1666 5.3325V18.2485C19.1666 18.7688 18.7694 19.1667 18.25 19.1667Z" fill="#303030"/>
<path d="M17.0278 6.25061H2.9722C2.6972 6.25061 2.45275 6.12819 2.26942 5.91394C2.08609 5.6997 2.02498 5.42424 2.08609 5.14878L2.72775 1.59842C2.81942 1.13932 3.18609 0.833252 3.64442 0.833252H16.4777C16.9361 0.833252 17.3027 1.16992 17.3944 1.59842L17.9444 5.17938C17.975 5.45484 17.9139 5.7303 17.7305 5.91394C17.5472 6.12819 17.3027 6.25061 17.0278 6.25061ZM4.0722 4.41422H15.9583L15.6833 2.66965H4.40831L4.0722 4.41422Z" fill="#303030"/>
<path d="M10 12.2495C7.92223 12.2495 6.21112 10.5356 6.21112 8.45433C6.21112 8.42372 6.21112 8.42372 6.21112 8.39312C6.24168 7.90341 6.6389 7.53613 7.12779 7.53613C7.64723 7.53613 8.04445 7.93402 8.04445 8.45433V8.48494C8.04445 9.55617 8.93056 10.4132 10 10.4132C11.0695 10.4132 11.9556 9.55617 11.9556 8.48494V8.45433C11.9556 7.93402 12.3528 7.53613 12.8722 7.53613C13.3611 7.53613 13.7583 7.93402 13.7889 8.39312C13.7889 8.42372 13.7889 8.42372 13.7889 8.45433C13.7889 10.5356 12.0778 12.2495 10 12.2495Z" fill="#303030"/>
</g>
</g>
<defs>
<clipPath id="clip0_457_2791">
<rect width="20" height="20" fill="white"/>
</clipPath>
<clipPath id="clip1_457_2791">
<rect width="18.3333" height="18.3333" fill="white" transform="translate(0.833313 0.833252)"/>
</clipPath>
</defs>
</svg>
