<svg width="20" height="20" viewBox="0 0 20 20" fill="none" xmlns="http://www.w3.org/2000/svg">
<g clip-path="url(#clip0_457_2796)">
<g clip-path="url(#clip1_457_2796)">
<path d="M17.1194 19.1666H2.88053C1.74998 19.1666 0.833313 18.25 0.833313 17.1194V9.17497C0.833313 8.65552 1.23054 8.2583 1.74998 8.2583C2.26942 8.2583 2.66665 8.65552 2.66665 9.17497V17.1194C2.66665 17.2416 2.75831 17.3333 2.88053 17.3333H17.1194C17.2416 17.3333 17.3333 17.2416 17.3333 17.1194V9.17497C17.3333 8.65552 17.7305 8.2583 18.25 8.2583C18.7694 8.2583 19.1666 8.65552 19.1666 9.17497V17.1194C19.1666 18.25 18.25 19.1666 17.1194 19.1666Z" fill="#303030"/>
<path d="M18.1189 8.55428L17.9103 8.38044H17.6388H15.6022L14.1416 7.48542L13.756 7.24914L13.3671 7.47987L11.849 8.38044H9.99976H8.12669L6.6369 7.48255L6.23898 7.24273L5.84704 7.4922L4.45151 8.38044H2.36101H2.06927L1.85421 8.57758C1.82792 8.60168 1.79055 8.61659 1.74472 8.61434C1.7033 8.6123 1.66685 8.59665 1.63983 8.57184C1.56319 8.46933 1.59311 8.3564 1.64558 8.30831L1.70202 8.25657L1.74684 8.19449L5.50386 2.99124C5.55676 2.97594 5.63012 2.95813 5.72689 2.93925C5.98913 2.88808 6.35439 2.84201 6.80164 2.80394C7.69186 2.72818 8.84127 2.68945 9.99976 2.68945C11.1582 2.68945 12.3076 2.72817 13.1979 2.80394C13.6451 2.842 14.0104 2.88807 14.2726 2.93924C14.3694 2.95813 14.4428 2.97593 14.4957 2.99124L18.253 8.19451L18.2978 8.25658L18.3542 8.30831C18.3844 8.33596 18.4037 8.37611 18.406 8.42249C18.4083 8.46832 18.3934 8.50569 18.3693 8.53198L18.3608 8.5412L18.3527 8.55068C18.296 8.61681 18.2531 8.62404 18.2491 8.6248C18.2423 8.62407 18.1943 8.61711 18.1189 8.55428ZM5.41952 3.02064C5.41933 3.02057 5.42205 3.01915 5.42827 3.01657C5.42281 3.01942 5.41971 3.02071 5.41952 3.02064ZM14.58 3.02063C14.5798 3.0207 14.5767 3.01941 14.5712 3.01656C14.5775 3.01914 14.5802 3.02056 14.58 3.02063Z" stroke="#303030" stroke-width="1.5"/>
<path d="M12.2611 19.1667H7.73887C7.21943 19.1667 6.8222 18.7694 6.8222 18.25V10.9167C6.8222 10.3972 7.21943 10 7.73887 10H12.2305C12.75 10 13.1472 10.3972 13.1472 10.9167V18.25C13.1778 18.7694 12.75 19.1667 12.2611 19.1667ZM8.65554 17.3333H11.3139V11.8333H8.65554V17.3333Z" fill="#303030"/>
</g>
</g>
<defs>
<clipPath id="clip0_457_2796">
<rect width="20" height="20" fill="white"/>
</clipPath>
<clipPath id="clip1_457_2796">
<rect width="18.3333" height="18.3333" fill="white" transform="translate(0.833313 0.833252)"/>
</clipPath>
</defs>
</svg>
