<svg width="22" height="22" viewBox="0 0 22 22" fill="none" xmlns="http://www.w3.org/2000/svg">
<g clip-path="url(#clip0_503_4668)">
<path d="M18.2334 21.0834H2.84979C2.27375 21.0834 1.83325 20.6529 1.83325 20.09V4.09573C1.83325 3.53278 2.27375 3.10229 2.84979 3.10229H6.57709C7.15313 3.10229 7.59363 3.53278 7.59363 4.09573C7.59363 4.65867 7.15313 5.08916 6.57709 5.08916H3.86633V19.0965H17.2168V5.08916H13.8623C13.2862 5.08916 12.8457 4.65867 12.8457 4.09573C12.8457 3.53278 13.2862 3.10229 13.8623 3.10229H18.2334C18.8094 3.10229 19.2499 3.53278 19.2499 4.09573V20.09C19.2499 20.6198 18.8094 21.0834 18.2334 21.0834Z" fill="#303030"/>
<path d="M12.5407 7.04291H8.5423C7.39022 7.04291 6.47534 6.14882 6.47534 5.02293V2.93673C6.47534 1.81084 7.39022 0.916748 8.5423 0.916748H12.5746C13.7266 0.916748 14.6415 1.81084 14.6415 2.93673V5.05605C14.6076 6.14882 13.6928 7.04291 12.5407 7.04291ZM8.5423 2.90361C8.50842 2.90361 8.50842 2.90361 8.5423 2.90361L8.50842 5.02293C8.50842 5.05605 8.50842 5.05605 8.5423 5.05605H12.5746C12.6084 5.05605 12.6084 5.05605 12.6084 5.02293V2.93673C12.6084 2.90361 12.6084 2.90361 12.5746 2.90361H8.5423Z" fill="#303030"/>
</g>
<defs>
<clipPath id="clip0_503_4668">
<rect width="17.4167" height="20.1667" fill="white" transform="translate(1.83325 0.916748)"/>
</clipPath>
</defs>
</svg>
