<svg width="20" height="20" viewBox="0 0 20 20" fill="none" xmlns="http://www.w3.org/2000/svg">
<g clip-path="url(#clip0_457_2806)">
<g clip-path="url(#clip1_457_2806)">
<path d="M9.99998 19.1666C4.95831 19.1666 0.833313 15.0416 0.833313 9.99992C0.833313 4.95825 4.95831 0.833252 9.99998 0.833252C15.0416 0.833252 19.1666 4.95825 19.1666 9.99992C19.1666 15.0416 15.0416 19.1666 9.99998 19.1666ZM9.99998 2.66659C5.96665 2.66659 2.66665 5.96658 2.66665 9.99992C2.66665 14.0333 5.96665 17.3333 9.99998 17.3333C14.0333 17.3333 17.3333 14.0333 17.3333 9.99992C17.3333 5.96658 14.0333 2.66659 9.99998 2.66659Z" fill="#303030"/>
<path d="M9.32777 13.361C8.80833 13.361 8.41111 12.9637 8.41111 12.4443V11.1304C8.41111 10.9471 8.47222 10.7332 8.59444 10.5804L10.6722 7.73873C10.825 7.52484 10.9167 7.24984 10.8556 6.97484C10.825 6.69984 10.6722 6.4554 10.4278 6.30262C9.96944 5.96651 9.29722 6.05817 8.96111 6.51651C8.65555 6.91373 8.075 7.0054 7.67777 6.69984C7.28055 6.39429 7.18888 5.81373 7.49444 5.41651C8.44166 4.13317 10.2444 3.85817 11.4972 4.8054C12.1083 5.26373 12.5361 5.93595 12.6278 6.69984C12.75 7.46373 12.5667 8.22762 12.1083 8.83873L10.2139 11.436V12.4443C10.2444 12.9332 9.81666 13.361 9.32777 13.361Z" fill="#303030"/>
<path d="M9.32774 16.0192C8.80829 16.0192 8.41107 15.622 8.41107 15.1026V14.8276C8.41107 14.3081 8.80829 13.9109 9.32774 13.9109C9.84718 13.9109 10.2444 14.3081 10.2444 14.8276V15.1026C10.2444 15.622 9.84718 16.0192 9.32774 16.0192Z" fill="#303030"/>
</g>
</g>
<defs>
<clipPath id="clip0_457_2806">
<rect width="20" height="20" fill="white"/>
</clipPath>
<clipPath id="clip1_457_2806">
<rect width="18.3333" height="18.3333" fill="white" transform="translate(0.833313 0.833252)"/>
</clipPath>
</defs>
</svg>
