<svg width="22" height="22" viewBox="0 0 22 22" fill="none" xmlns="http://www.w3.org/2000/svg">
<g clip-path="url(#clip0_503_4663)">
<g clip-path="url(#clip1_503_4663)">
<path d="M1.92508 21.0835C1.35369 21.0835 0.916748 20.6465 0.916748 20.0751V17.1846C0.916748 13.8235 2.76536 11.9749 6.12647 11.9749H12.0084C15.3695 11.9749 17.2181 13.8235 17.2181 17.1846V20.0751C17.2181 20.6465 16.7812 21.0835 16.2098 21.0835C15.6384 21.0835 15.2015 20.6465 15.2015 20.0751V17.1846C15.2015 14.9326 14.2267 13.9915 12.0084 13.9915H6.12647C3.87453 13.9915 2.93341 14.9662 2.93341 17.1846V20.0751C2.93341 20.6129 2.49647 21.0835 1.92508 21.0835Z" fill="#303030"/>
<path d="M9.05054 11.1345C6.22721 11.1345 3.94165 8.84897 3.94165 6.02564C3.94165 3.2023 6.22721 0.916748 9.05054 0.916748C11.8739 0.916748 14.1594 3.2023 14.1594 6.02564C14.1594 8.84897 11.8739 11.1345 9.05054 11.1345ZM9.05054 2.93341C7.33637 2.93341 5.95832 4.31147 5.95832 6.02564C5.95832 7.7398 7.33637 9.11786 9.05054 9.11786C10.7647 9.11786 12.1428 7.7398 12.1428 6.02564C12.1428 4.31147 10.7647 2.93341 9.05054 2.93341Z" fill="#303030"/>
<path d="M20.0751 21.0834C19.5037 21.0834 19.0668 20.6465 19.0668 20.0751V17.1846C19.0668 15.2015 18.2937 14.5965 17.6887 14.3276C17.1846 14.0923 16.9829 13.4873 17.2182 12.9832C17.4535 12.479 18.0585 12.2773 18.5626 12.5126C19.7054 13.0504 21.0835 14.3276 21.0835 17.1846V20.0751C21.0835 20.6129 20.6129 21.0834 20.0751 21.0834Z" fill="#303030"/>
<path d="M14.4284 10.8321C14.0251 10.8321 13.6554 10.5969 13.4873 10.1935C13.2857 9.68936 13.5209 9.08436 14.0587 8.88269C15.2351 8.41214 16.0082 7.30297 16.0082 6.02575C16.0082 4.74853 15.2351 3.63936 14.0587 3.16881C13.5545 2.96714 13.2857 2.36214 13.4873 1.85797C13.689 1.35381 14.294 1.08492 14.7982 1.28658C16.7476 2.05964 17.9912 3.90825 17.9912 6.02575C17.9912 8.14325 16.7476 9.95825 14.7982 10.7649C14.6637 10.7985 14.5629 10.8321 14.4284 10.8321Z" fill="#303030"/>
</g>
</g>
<defs>
<clipPath id="clip0_503_4663">
<rect width="22" height="22" fill="white"/>
</clipPath>
<clipPath id="clip1_503_4663">
<rect width="20.1667" height="20.1667" fill="white" transform="translate(0.916748 0.916748)"/>
</clipPath>
</defs>
</svg>
