<svg width="20" height="20" viewBox="0 0 20 20" fill="none" xmlns="http://www.w3.org/2000/svg">
<g clip-path="url(#clip0_830_5398)">
<path d="M16.5759 19.1665H2.59081C2.06714 19.1665 1.66669 18.7752 1.66669 18.2634V3.72319C1.66669 3.21142 2.06714 2.82007 2.59081 2.82007H5.97927C6.50294 2.82007 6.90339 3.21142 6.90339 3.72319C6.90339 4.23496 6.50294 4.62631 5.97927 4.62631H3.51494V17.3603H15.6518V4.62631H12.6022C12.0785 4.62631 11.678 4.23496 11.678 3.72319C11.678 3.21142 12.0785 2.82007 12.6022 2.82007H16.5759C17.0996 2.82007 17.5 3.21142 17.5 3.72319V18.2634C17.5 18.7451 17.0996 19.1665 16.5759 19.1665Z" fill="#303030"/>
<path d="M11.4008 6.40249H7.76589C6.71855 6.40249 5.88684 5.58968 5.88684 4.56615V2.6696C5.88684 1.64606 6.71855 0.833252 7.76589 0.833252H11.4316C12.4789 0.833252 13.3106 1.64606 13.3106 2.6696V4.59625C13.2798 5.58968 12.4481 6.40249 11.4008 6.40249ZM7.76589 2.63949C7.73509 2.63949 7.73509 2.63949 7.76589 2.63949L7.73509 4.56615C7.73509 4.59625 7.73509 4.59625 7.76589 4.59625H11.4316C11.4624 4.59625 11.4624 4.59625 11.4624 4.56615V2.6696C11.4624 2.63949 11.4624 2.63949 11.4316 2.63949H7.76589Z" fill="#303030"/>
<g clip-path="url(#clip1_830_5398)">
<path d="M13.6593 20.7779H12.987C12.2537 20.7779 11.6426 20.1668 11.6426 19.4334V18.7205L11.1333 19.2297C10.6037 19.7594 9.74816 19.7594 9.2389 19.2297L8.77038 18.7408C8.24075 18.2112 8.24075 17.3557 8.77038 16.8464L9.27964 16.3371H8.56667C7.83334 16.3371 7.22223 15.726 7.22223 14.9927V14.3205C7.22223 13.5871 7.83334 12.976 8.56667 12.976H9.27964L8.77038 12.4668C8.24075 11.9371 8.24075 11.0816 8.77038 10.5723L9.2389 10.1038C9.76853 9.57418 10.6241 9.57418 11.1333 10.1038L11.6426 10.6131V9.90011C11.6426 9.16678 12.2537 8.55566 12.987 8.55566H13.6593C14.3926 8.55566 15.0037 9.16678 15.0037 9.90011V10.6131L15.513 10.1038C16.0426 9.57418 16.8982 9.57418 17.4074 10.1038L17.8759 10.5723C18.4056 11.102 18.4056 11.9575 17.8759 12.4668L17.3667 12.976H18.0796C18.813 12.976 19.4241 13.5871 19.4241 14.3205V14.9927C19.4241 15.726 18.813 16.3371 18.0796 16.3371H17.3667L17.8759 16.8464C18.4056 17.376 18.4056 18.2316 17.8759 18.7408L17.4074 19.2094C16.8778 19.739 16.0222 19.739 15.513 19.2094L15.0037 18.7001V19.4131C15.0037 20.1668 14.413 20.7779 13.6593 20.7779ZM11.7241 17.3964C11.8667 17.3964 12.0296 17.4168 12.1722 17.4779C12.6 17.6612 12.8852 18.0686 12.8852 18.5371V19.4131C12.8852 19.4742 12.9463 19.5353 13.0074 19.5353H13.6796C13.7407 19.5353 13.8019 19.4742 13.8019 19.4131V18.5371C13.8019 18.0686 14.087 17.6408 14.5148 17.4779C14.9426 17.2946 15.4519 17.3964 15.7778 17.7223L16.3889 18.3334C16.45 18.3946 16.5111 18.3946 16.5519 18.3334L17.0204 17.8649C17.0407 17.8446 17.0611 17.8038 17.0611 17.7834C17.0611 17.7631 17.0611 17.7223 17.0204 17.702L16.4093 17.0908C16.0833 16.7649 15.9815 16.2557 16.1648 15.8279C16.3482 15.4001 16.7556 15.1149 17.2241 15.1149H18.1C18.1611 15.1149 18.2222 15.0538 18.2222 14.9927V14.3205C18.2222 14.2594 18.1611 14.1983 18.1 14.1983H17.2241C16.7556 14.1983 16.3278 13.9131 16.1648 13.4853C16.0019 13.0575 16.0833 12.5483 16.4093 12.2223L17.0204 11.6112C17.0407 11.5908 17.0611 11.5501 17.0611 11.5297C17.0611 11.5094 17.0611 11.4686 17.0204 11.4483L16.5519 10.9797C16.4907 10.9186 16.4296 10.9186 16.3889 10.9797L15.7778 11.5908C15.4519 11.9168 14.9426 12.0186 14.5148 11.8353C14.087 11.652 13.8019 11.2446 13.8019 10.776V9.90011C13.8019 9.839 13.7407 9.77789 13.6796 9.77789H13.0074C12.9463 9.77789 12.8852 9.839 12.8852 9.90011V10.776C12.8852 11.2446 12.6 11.6723 12.1722 11.8353C11.7445 12.0186 11.2352 11.9168 10.9093 11.5908L10.2982 10.9797C10.237 10.9186 10.1759 10.9186 10.1352 10.9797L9.66667 11.4483C9.6463 11.4686 9.62593 11.5094 9.62593 11.5297C9.62593 11.5501 9.62593 11.5908 9.66667 11.6112L10.2778 12.2223C10.6037 12.5483 10.7056 13.0575 10.5222 13.4853C10.3389 13.9131 9.93149 14.1983 9.46297 14.1983H8.56667C8.50556 14.2186 8.44445 14.2594 8.44445 14.3205V14.9927C8.44445 15.0538 8.50556 15.1149 8.56667 15.1149H9.4426C9.91112 15.1149 10.3389 15.4001 10.5019 15.8279C10.6648 16.2557 10.5833 16.7649 10.2574 17.0908L9.6463 17.702C9.62593 17.7223 9.60556 17.7631 9.60556 17.7834C9.60556 17.8038 9.60556 17.8446 9.6463 17.8649L10.1148 18.3334C10.1759 18.3946 10.237 18.3946 10.2778 18.3334L10.8889 17.7223C11.1333 17.5186 11.4185 17.3964 11.7241 17.3964Z" fill="#303030"/>
<path d="M13.3334 17.0297C12.0297 17.0297 10.9704 15.9705 10.9704 14.6668C10.9704 13.3631 12.0297 12.2834 13.3334 12.2834C14.6371 12.2834 15.6963 13.3631 15.6963 14.6668C15.6963 15.9705 14.6371 17.0297 13.3334 17.0297ZM13.3334 13.4446C12.6611 13.4446 12.1111 13.9946 12.1111 14.6668C12.1111 15.339 12.6611 15.889 13.3334 15.889C14.0056 15.889 14.5556 15.339 14.5556 14.6668C14.5556 13.9946 14.0056 13.4446 13.3334 13.4446Z" fill="#303030"/>
</g>
</g>
<defs>
<clipPath id="clip0_830_5398">
<rect width="15.8333" height="18.3333" fill="white" transform="translate(1.66669 0.833252)"/>
</clipPath>
<clipPath id="clip1_830_5398">
<rect width="12.2222" height="12.2222" fill="white" transform="translate(7.22223 8.55566)"/>
</clipPath>
</defs>
</svg>
