<svg width="16" height="16" viewBox="0 0 16 16" fill="none" xmlns="http://www.w3.org/2000/svg">
<g clip-path="url(#clip0_1310_10765)">
<g clip-path="url(#clip1_1310_10765)">
<path d="M8.39119 15.3333H7.58453C6.70453 15.3333 5.97119 14.6 5.97119 13.72V12.8644L5.36008 13.4755C4.72453 14.1111 3.69786 14.1111 3.08675 13.4755L2.52453 12.8889C1.88897 12.2533 1.88897 11.2267 2.52453 10.6155L3.13564 10.0044H2.28008C1.40008 10.0044 0.666748 9.2711 0.666748 8.3911V7.58443C0.666748 6.70443 1.40008 5.9711 2.28008 5.9711H3.13564L2.52453 5.35999C1.88897 4.72443 1.88897 3.69777 2.52453 3.08666L3.08675 2.52443C3.7223 1.88888 4.74897 1.88888 5.36008 2.52443L5.97119 3.13555V2.27999C5.97119 1.39999 6.70453 0.666656 7.58453 0.666656H8.39119C9.27119 0.666656 10.0045 1.39999 10.0045 2.27999V3.13555L10.6156 2.52443C11.2512 1.88888 12.2779 1.88888 12.889 2.52443L13.4512 3.08666C14.0867 3.72221 14.0867 4.74888 13.4512 5.35999L12.8401 5.9711H13.6956C14.5756 5.9711 15.309 6.70443 15.309 7.58443V8.3911C15.309 9.2711 14.5756 10.0044 13.6956 10.0044H12.8401L13.4512 10.6155C14.0867 11.2511 14.0867 12.2778 13.4512 12.8889L12.889 13.4511C12.2534 14.0867 11.2267 14.0867 10.6156 13.4511L10.0045 12.84V13.6955C10.0045 14.6 9.29564 15.3333 8.39119 15.3333ZM6.06897 11.2755C6.24008 11.2755 6.43564 11.3 6.60675 11.3733C7.12008 11.5933 7.4623 12.0822 7.4623 12.6444V13.6955C7.4623 13.7689 7.53564 13.8422 7.60897 13.8422H8.41564C8.48897 13.8422 8.5623 13.7689 8.5623 13.6955V12.6444C8.5623 12.0822 8.90452 11.5689 9.41786 11.3733C9.93119 11.1533 10.5423 11.2755 10.9334 11.6667L11.6667 12.4C11.7401 12.4733 11.8134 12.4733 11.8623 12.4L12.4245 11.8378C12.449 11.8133 12.4734 11.7644 12.4734 11.74C12.4734 11.7155 12.4734 11.6667 12.4245 11.6422L11.6912 10.9089C11.3001 10.5178 11.1779 9.90666 11.3979 9.39332C11.6179 8.87999 12.1067 8.53777 12.669 8.53777H13.7201C13.7934 8.53777 13.8667 8.46443 13.8667 8.3911V7.58443C13.8667 7.5111 13.7934 7.43777 13.7201 7.43777H12.669C12.1067 7.43777 11.5934 7.09555 11.3979 6.58221C11.2023 6.06888 11.3001 5.45777 11.6912 5.06666L12.4245 4.33332C12.449 4.30888 12.4734 4.25999 12.4734 4.23555C12.4734 4.2111 12.4734 4.16221 12.4245 4.13777L11.8623 3.57555C11.789 3.50221 11.7156 3.50221 11.6667 3.57555L10.9334 4.30888C10.5423 4.69999 9.93119 4.82221 9.41786 4.60221C8.90452 4.38221 8.5623 3.89332 8.5623 3.3311V2.27999C8.5623 2.20666 8.48897 2.13332 8.41564 2.13332H7.60897C7.53564 2.13332 7.4623 2.20666 7.4623 2.27999V3.3311C7.4623 3.89332 7.12008 4.40666 6.60675 4.60221C6.09341 4.82221 5.4823 4.69999 5.09119 4.30888L4.35786 3.57555C4.28453 3.50221 4.21119 3.50221 4.1623 3.57555L3.60008 4.13777C3.57564 4.16221 3.55119 4.2111 3.55119 4.23555C3.55119 4.25999 3.55119 4.30888 3.60008 4.33332L4.33341 5.06666C4.72453 5.45777 4.84675 6.06888 4.62675 6.58221C4.40675 7.09555 3.91786 7.43777 3.35564 7.43777H2.28008C2.20675 7.46221 2.13341 7.5111 2.13341 7.58443V8.3911C2.13341 8.46443 2.20675 8.53777 2.28008 8.53777H3.33119C3.89341 8.53777 4.40675 8.87999 4.6023 9.39332C4.79786 9.90666 4.70008 10.5178 4.30897 10.9089L3.57564 11.6422C3.55119 11.6667 3.52675 11.7155 3.52675 11.74C3.52675 11.7644 3.52675 11.8133 3.57564 11.8378L4.13786 12.4C4.21119 12.4733 4.28453 12.4733 4.33341 12.4L5.06675 11.6667C5.36008 11.4222 5.7023 11.2755 6.06897 11.2755Z" fill="#303030"/>
<path d="M8.00011 10.8355C6.43566 10.8355 5.16455 9.5644 5.16455 7.99995C5.16455 6.43551 6.43566 5.13995 8.00011 5.13995C9.56455 5.13995 10.8357 6.43551 10.8357 7.99995C10.8357 9.5644 9.56455 10.8355 8.00011 10.8355ZM8.00011 6.53329C7.19344 6.53329 6.53344 7.19329 6.53344 7.99995C6.53344 8.80662 7.19344 9.46662 8.00011 9.46662C8.80677 9.46662 9.46677 8.80662 9.46677 7.99995C9.46677 7.19329 8.80677 6.53329 8.00011 6.53329Z" fill="#303030"/>
</g>
</g>
<defs>
<clipPath id="clip0_1310_10765">
<rect width="16" height="16" fill="white"/>
</clipPath>
<clipPath id="clip1_1310_10765">
<rect width="14.6667" height="14.6667" fill="white" transform="translate(0.666748 0.666656)"/>
</clipPath>
</defs>
</svg>
