<svg width="27" height="26" viewBox="0 0 27 26" fill="none" xmlns="http://www.w3.org/2000/svg">
<path d="M12.5 8.19981V9.19981H14.5V8.19981H12.5ZM14.5 8.18381V7.18381H12.5V8.18381H14.5ZM14.5 18.5998V12.1998H12.5V18.5998H14.5ZM14.5 8.19981V8.18381H12.5V8.19981H14.5ZM11 13.9998H13.5V11.9998H11V13.9998ZM11 18.7998H16V16.7998H11V18.7998ZM13.5 2.7998C19.4299 2.79981 24.1666 7.40458 24.1666 12.9998L26.1666 12.9998C26.1666 6.22385 20.4567 0.799805 13.5 0.799805V2.7998ZM2.83331 12.9998C2.83331 7.40458 7.57008 2.7998 13.5 2.7998V0.799805C6.54324 0.799804 0.833314 6.22385 0.833313 12.9998H2.83331ZM13.5 23.1998C7.57008 23.1998 2.83331 18.595 2.83331 12.9998H0.833313C0.833312 19.7758 6.54324 25.1998 13.5 25.1998L13.5 23.1998ZM13.5 25.1998C20.4567 25.1998 26.1666 19.7758 26.1666 12.9998L24.1666 12.9998C24.1666 18.595 19.4299 23.1998 13.5 23.1998L13.5 25.1998Z" fill="#A6A4A4"/>
</svg>
