<svg width="27" height="22" viewBox="0 0 27 22" fill="none" xmlns="http://www.w3.org/2000/svg">
<path d="M1.99941 19.0004C0 16.0004 1.24162 7.6718 1.99941 1.00043C24.4313 -0.906161 31.0677 2.00387 25.9994 19.0004C19.5456 21.339 3.99882 22.0004 1.99941 19.0004Z" fill="#269300" stroke="#269300"/>
<g clip-path="url(#clip0_1264_4727)">
<path d="M17.407 10.8433H10.093C9.75698 10.8433 9.5 10.5863 9.5 10.2502C9.5 9.9142 9.75698 9.65723 10.093 9.65723H17.407C17.743 9.65723 18 9.9142 18 10.2502C18 10.5863 17.743 10.8433 17.407 10.8433Z" fill="#F8F8FF"/>
<path d="M13.7498 14.5C13.4137 14.5 13.1567 14.243 13.1567 13.907V6.59302C13.1567 6.25698 13.4137 6 13.7498 6C14.0858 6 14.3428 6.25698 14.3428 6.59302V13.907C14.3428 14.243 14.0858 14.5 13.7498 14.5Z" fill="#F8F8FF"/>
</g>
<defs>
<clipPath id="clip0_1264_4727">
<rect width="8.5" height="8.5" fill="white" transform="translate(9.5 6)"/>
</clipPath>
</defs>
</svg>
