<svg width="25" height="24" viewBox="0 0 25 24" fill="none" xmlns="http://www.w3.org/2000/svg">
<g clip-path="url(#clip0_1224_4634)">
<path d="M21.425 7.98749H20.6V5.21249C20.6 4.49999 20.2625 3.78749 19.6625 3.37499C19.0625 2.96249 18.3125 2.84999 17.6375 3.07499L3.5375 7.94999H3.125C1.8875 7.94999 0.875 8.96249 0.875 10.2V18.5625C0.875 19.8 1.8875 20.8125 3.125 20.8125H21.425C22.6625 20.8125 23.675 19.8 23.675 18.5625V10.2375C23.675 8.99999 22.6625 7.98749 21.425 7.98749ZM18.125 4.49999C18.35 4.42499 18.6125 4.46249 18.8 4.61249C18.9875 4.76249 19.1 4.98749 19.1 5.21249V7.98749H8.1125L18.125 4.49999ZM21.425 19.3125H3.125C2.7125 19.3125 2.375 18.975 2.375 18.5625V10.2375C2.375 9.82499 2.7125 9.48749 3.125 9.48749H21.425C21.8375 9.48749 22.175 9.82499 22.175 10.2375V11.7H17.9C16.3625 11.7 15.125 12.9375 15.125 14.475C15.125 16.0125 16.3625 17.25 17.9 17.25H22.175V18.6C22.175 18.975 21.8375 19.3125 21.425 19.3125ZM22.175 13.2V15.75H17.9C17.1875 15.75 16.625 15.1875 16.625 14.475C16.625 13.7625 17.1875 13.2 17.9 13.2H22.175Z" fill="#303030"/>
</g>
<defs>
<clipPath id="clip0_1224_4634">
<rect width="24" height="24" fill="white" transform="translate(0.5)"/>
</clipPath>
</defs>
</svg>
